<svg width="109" height="46" viewBox="0 0 109 46" fill="none" xmlns="http://www.w3.org/2000/svg">
<g opacity="0.85">
<path d="M97.8773 13.3649C96.4612 13.3622 95.0559 13.5934 93.727 14.0477C92.2437 10.853 88.4036 8.55806 83.8772 8.55806C82.1427 8.551 80.4279 8.90004 78.8556 9.58021C77.6146 6.04412 73.5599 3.44927 68.7487 3.44927C66.8634 3.44138 65.0038 3.85563 63.3276 4.65691C61.3194 1.87066 57.6111 0 53.3631 0C49.3849 0 45.8764 1.64176 43.8002 4.14386C42.4665 3.68482 41.0552 3.45092 39.6329 3.45322C34.8217 3.45322 30.767 6.04806 29.526 9.58416C27.9537 8.90399 26.2389 8.55494 24.5044 8.56201C19.9864 8.55806 16.1358 10.853 14.6631 14.0477C13.3342 13.5934 11.9289 13.3622 10.5128 13.3649C4.70069 13.3649 0 17.1299 0 21.777C0 26.424 4.70069 30.191 10.5022 30.191C11.8412 30.1931 13.171 29.9856 14.4357 29.5773C15.7108 33.0581 19.7484 35.5977 24.5023 35.5977C26.1639 35.6011 27.8077 35.279 29.3262 34.6525C30.2889 38.5024 34.5305 41.4051 39.6223 41.4051C40.8138 41.4073 41.9991 41.245 43.1393 40.9236C45.1454 43.7118 48.8558 45.5844 53.1038 45.5844C57.6749 45.5844 61.6254 43.4139 63.4976 40.2724C65.1317 41.0237 66.9317 41.4114 68.7551 41.4051C73.8553 41.4051 78.0885 38.5024 79.0511 34.6525C80.5724 35.2794 82.2192 35.6009 83.8836 35.5958C88.6438 35.5958 92.6644 33.0562 93.9501 29.5753C95.2127 29.9836 96.5403 30.1918 97.8773 30.191C103.679 30.191 108.379 26.424 108.379 21.7789C108.379 17.1339 103.679 13.3649 97.8773 13.3649Z" fill="white"/>
</g>
</svg>
