<svg width="22" height="23" viewBox="0 0 22 23" fill="none" xmlns="http://www.w3.org/2000/svg">
<path d="M10.783 11.1129C9.32964 11.1129 8.08546 10.5688 7.05048 9.48067C6.0155 8.39253 5.49801 7.08445 5.49801 5.55643C5.49801 4.02842 6.0155 2.72034 7.05048 1.6322C8.08546 0.544068 9.32964 0 10.783 0C12.2364 0 13.4806 0.544068 14.5155 1.6322C15.5505 2.72034 16.068 4.02842 16.068 5.55643C16.068 7.08445 15.5505 8.39253 14.5155 9.48067C13.4806 10.5688 12.2364 11.1129 10.783 11.1129ZM0.213013 22.2257V18.3362C0.213013 17.5491 0.405695 16.8256 0.79106 16.1658C1.17642 15.5059 1.68841 15.0024 2.32701 14.6551C3.6923 13.9374 5.07962 13.3991 6.48895 13.0403C7.89828 12.6814 9.32964 12.502 10.783 12.502C12.2364 12.502 13.6677 12.6814 15.0771 13.0403C16.4864 13.3991 17.8737 13.9374 19.239 14.6551C19.8776 15.0024 20.3896 15.5059 20.775 16.1658C21.1603 16.8256 21.353 17.5491 21.353 18.3362V22.2257H0.213013ZM2.85551 19.4475H18.7105V18.3362C18.7105 18.0816 18.65 17.85 18.5288 17.6417C18.4077 17.4333 18.2481 17.2713 18.0499 17.1555C16.8608 16.5304 15.6606 16.0616 14.4495 15.749C13.2383 15.4365 12.0162 15.2802 10.783 15.2802C9.54985 15.2802 8.32769 15.4365 7.11654 15.749C5.9054 16.0616 4.70526 16.5304 3.51614 17.1555C3.31795 17.2713 3.1583 17.4333 3.03718 17.6417C2.91607 17.85 2.85551 18.0816 2.85551 18.3362V19.4475ZM10.783 8.33465C11.5097 8.33465 12.1318 8.06262 12.6493 7.51855C13.1668 6.97448 13.4255 6.32044 13.4255 5.55643C13.4255 4.79242 13.1668 4.13839 12.6493 3.59432C12.1318 3.05025 11.5097 2.77822 10.783 2.77822C10.0563 2.77822 9.43424 3.05025 8.91675 3.59432C8.39926 4.13839 8.14051 4.79242 8.14051 5.55643C8.14051 6.32044 8.39926 6.97448 8.91675 7.51855C9.43424 8.06262 10.0563 8.33465 10.783 8.33465Z" fill="currentColor"/>
</svg>
