<svg width="22" height="22" viewBox="0 0 22 22" fill="none" xmlns="http://www.w3.org/2000/svg">
<path d="M2.67659 21.5543C1.94053 21.5543 1.31042 21.3473 0.786249 20.9333C0.262083 20.5193 0 20.0217 0 19.4403V6.75631C0 6.17496 0.262083 5.67729 0.786249 5.26329C1.31042 4.8493 1.94053 4.64231 2.67659 4.64231H5.35319C5.35319 3.47961 5.87735 2.48426 6.92568 1.65628C7.97402 0.828298 9.23424 0.414307 10.7064 0.414307C12.1785 0.414307 13.4387 0.828298 14.4871 1.65628C15.5354 2.48426 16.0596 3.47961 16.0596 4.64231H18.7361C19.4722 4.64231 20.1023 4.8493 20.6265 5.26329C21.1507 5.67729 21.4127 6.17496 21.4127 6.75631V19.4403C21.4127 20.0217 21.1507 20.5193 20.6265 20.9333C20.1023 21.3473 19.4722 21.5543 18.7361 21.5543H2.67659ZM2.67659 19.4403H18.7361V6.75631H16.0596V8.87031C16.0596 9.16979 15.9313 9.42083 15.6748 9.62342C15.4183 9.82601 15.1004 9.92731 14.7213 9.92731C14.3421 9.92731 14.0242 9.82601 13.7677 9.62342C13.5112 9.42083 13.383 9.16979 13.383 8.87031V6.75631H8.02978V8.87031C8.02978 9.16979 7.90152 9.42083 7.64502 9.62342C7.38851 9.82601 7.07067 9.92731 6.69148 9.92731C6.3123 9.92731 5.99445 9.82601 5.73795 9.62342C5.48144 9.42083 5.35319 9.16979 5.35319 8.87031V6.75631H2.67659V19.4403ZM8.02978 4.64231H13.383C13.383 4.06096 13.1209 3.56329 12.5967 3.14929C12.0725 2.7353 11.4424 2.52831 10.7064 2.52831C9.97031 2.52831 9.34019 2.7353 8.81603 3.14929C8.29186 3.56329 8.02978 4.06096 8.02978 4.64231Z" fill="currentColor"/>
</svg>
